<?xml version="1.0" encoding="utf-8"?>
<!-- Generator: Adobe Illustrator 21.0.0, SVG Export Plug-In . SVG Version: 6.00 Build 0)  -->
<svg version="1.1" baseProfile="tiny" id="colors" xmlns="http://www.w3.org/2000/svg" xmlns:xlink="http://www.w3.org/1999/xlink"
	 x="0px" y="0px" width="838px" height="1080px" viewBox="0 0 838 1080" xml:space="preserve">
<rect id="background" x="-0.5" y="0.3" fill="#FFFFFF" stroke="#000000" stroke-miterlimit="10" width="838" height="1080"/>
<image display="none" width="838" height="1080" id="original" xlink:href="../../../../../apps/21/SvgImageBlend/bin/data/moebius_colors.jpg" >
</image>
<g id="group6">
	<polygon fill="#00F9FF" points="769.7,64 832.3,118.7 832.3,663.3 273,565.3 318.1,517.1 358.3,476.4 433.9,402.9 	"/>
</g>
<g id="group5">
	<polygon fill="#F3FF00" points="171,5 204.8,5 194.8,31.9 181.5,62.5 175.6,69.3 171,75.6 166.3,84 156,79.5 156.3,76 163.5,67.5 
		165.8,61.5 166.5,50.8 164.3,41.3 168.2,19.5 	"/>
	<path fill="#F3FF00" d="M832.3,2.2v116.5L769.7,64L475.8,360.6l-6.4-6.6l-0.4-2.3l0.7-15.1l-2.3-3.2l-0.1-3.5l-0.3-17.2l-0.2-3.9
		l-2.1,17.2l-1.2,7.9l-2.8,7.5l-0.2,5.9l1.7,4.7l-0.5,3.9l-3.4,6.1l-1.8,10.1l-3.8,4l-1.3,7.8l-6.2,7.5h-2.7v-5l-2.8-3.5v-9.6
		l-1.5-2.8v-15v-4.7v-2.3l-1.6-9.3l-0.6-3.7l-1.1,14.2l-0.9,2.2l-0.1,3.2v1.6l0.3,13.8l-4.1,5.9l-0.1,6.5l0.5,3.4l-1,3.4l-0.3,5.3
		l-1.5,0.5l-2.9-2.8l-1.3-20.3l-0.4,3.9l-1.9,16.4l-2.3,3.7l-2-3.7l-4.4-3.5l-8.3,0.2l-4.8,3.5L397,396l-0.2,4l-6.3-4.2l-6.1-1.8
		h-7.9l-0.7-5.3l-1.5-9.2l-2.2-11.1l-0.4-2.3V363l0.7-3.8l-0.7-3.2l-3.6-2.3h-4.7l-0.7,3l-0.6,2.5l0.4,3.5l1,2.5l0.7,1.7l-2.6,7.1
		l-1.9,16l-1,4.8l-8.5,2.9l-2.3,4.2l-2.6,5.4l-1.1,2.3h-2.4v-9.2c0,0-1.5-1.7-1.6-2.5c-0.2-0.8-0.2-8.3-0.2-8.3l-2.3-4.7l-1.8,4.2
		l-0.9,8.5l-1.5,3.4l-0.7,8.4l-9.1,0.2l-0.4-10.4l-1.1-2.4v-3l1.8-2.7l0.2-4.5l-2.2-3.2l-2.2-3.1l-0.6-5.1l-4.5-2.9l-0.9-13.9
		l-0.3-4.2l-0.1,2.6l-0.2,6.1l-0.5,18.1l-2,3.5l0.9,3.5l1.4,5.2l-0.2,2.3l-0.9,14l-2.3-0.1l-8.3,0.1v-2.8l-0.4-4.2l-0.2,2.1l-0.3,5
		l-16.2,0.7l-0.2-5.5l-0.3-9.2l-1.9-6.1l-0.6,2.3l-1.2,7.7l-0.7,5.8l1.2,4.3l-0.3,0.7l-12.5,0.6l-0.8-0.2l-1-1.6l-2.1,1.8h-17
		l-0.4-7.4l-3-7.9l-2.1-3.8l-1.5,3.4l-2,4.6l-0.5,5.7l-1.2,5.5H228l-7.5-0.6l-2-2.2l-2.7-3l-3.2,0.2l-1.8,4l-2.1,3.3l0.1-1.7h-5.5
		l-0.9-11.3l-1-9.8l-1.3-7.3l-2-8.8l-1.5-5.6l-2.3,0.3l-2.7,7.2l-2,15.4l-2.1,19.1l-4.4-1.1l-2.3-3.2l-1.5-26.5l-5.8-29l-4.5-16
		l-2.7-9l-1.2-14.2l-1.3-6.7l-1.8,6v15.2l-5.8,11.7l-4.7,20.2l-3.3,22.7v27.2l-1.5,2.9l-6.2-0.2l-0.7-0.8l0.7-7l1.2-3.2l-1.2-7.7
		l-2.6-1.5l-5-21l-2.7-0.8l-5.2-5.7l-6.8,10.5l-1.3,16.3l-5,2.8l-1.2,7.2v4.5l3.3,3.7l-0.2,2.8l-6.8,1.5l-5.8-10.3l-0.7-3.8h-2.9
		h-3.2l-0.8,4.7l-2.8,4.2l-1.3,3.8l-4.2,1.2l1.7-14.2l24-110.8l-1.7-2.5l2-6l1-11.8l3.8-13l21.7-24l0.5-5.3l61.3-61.8l14.8-8.7
		l8.3-8.5l9.3-2.5l8.4-8.3l8.1-13.2l-0.3-14.1l-1.5-7.9l-7.1-8.6l-2.2-2.3l-1-16.2l16.1-49.8l5.4-17.5L832.3,2.2z"/>
</g>
<g id="group4">
	<polygon fill="#FF15D4" points="85.3,411.6 79.8,438.8 88,438.8 88,423.3 89,410.8 	"/>
	<polygon fill="#FF15D4" points="107,410.8 113.8,410.8 113.8,420.5 110.4,424.8 107,421.5 	"/>
	<polygon fill="#FF15D4" points="140.5,410.2 146.8,410.2 142.8,417.8 	"/>
	<polygon fill="#FF15D4" points="183.3,409.3 187.8,410.3 187.3,424.9 	"/>
	<polygon fill="#FF15D4" points="203.8,411 208.8,411 206.3,425 203.8,425 	"/>
	<polygon fill="#FF15D4" points="220.5,410.2 220.5,417.8 228.3,410.8 	"/>
	<polygon fill="#FF15D4" points="246.5,410.8 263.5,410.8 261.3,421.8 257.8,421.8 255,417.8 251.5,417.8 251,421.8 246.5,416.3 	
		"/>
	<polygon fill="#FF15D4" points="267.4,410.8 280,410.2 278,414.4 276.8,418.5 276.8,421.9 271.8,427.9 269.7,422.4 267.7,417.2 	
		"/>
	<polygon fill="#FF15D4" points="284,410.2 300.2,409.5 299.5,421.9 296,425.9 293.5,432.5 290.9,429.1 286.7,423.7 285.8,417.8 
		286.5,416.7 287.3,415.4 284.1,412.9 	"/>
	<polygon fill="#FF15D4" points="301.1,409.5 301.8,420.9 302.6,421.3 306.1,424.9 303,420.9 311.6,410.9 311.7,409.5 	"/>
	<polygon fill="#FF15D4" points="323.5,409.7 331.5,418.3 332.6,409.5 	"/>
	<polygon fill="#FF15D4" points="342.6,411.6 353.3,424.8 348.4,435 344.8,430.8 	"/>
	<polygon fill="#FF15D4" points="306.2,424.8 310.5,425.1 310.5,428.5 307.3,430.8 305,428.7 	"/>
	<polygon fill="#FF15D4" points="326.3,424.8 330.8,424.8 329.8,430.8 326.3,432.3 	"/>
	<path fill="#FF15D4" d="M633,1029l74.8,46l125.8-1.5L833,663.3L273,565l85.7-89H349l-9.7,1.7l-11.3,2.7l-8,1.3l-2,4l-6,2.7
		l-5.3-3.3l-6.7,0.3l-4.3-5.3l-6-0.3l-8.3-3.7H260v2.7l5.3,6.3l2.3,7.3v3.7l-5,0.7l-2.3-1.7l-8-7.7h-9l-4.7,1.7l-3,2l-7.7-0.3h-5.7
		l-4.7-2l-7-1l-6,0.3l-5-2.7l-2-3l-4,4.3l-2,2.7l-15.3,0.7l-2.3,4.7l-10.3,0.3l-7-1.7l-0.7-1.7l0.3-13H152l1,11.7h-11l-4-1.3l-1,2.3
		l-17.3,2.3l-6.3-2.3l0.7,5l-4.7,2.7l-5.5,0.7L87.7,499l-3.7-2.7v-5h-5.3L78,508.7l-6.3,3.3h-20l-5.3-3.3L44,502h-5l-5.7,12.7
		L28.7,532v7l9.7,4.1l3.3,6.6L39.3,606l-1,4l2.7,5.3l2,101l7-5l4,3.7l8.3-1.3l4,3l-5,2.7l5.7,3l14.7-13l30.3,4l-1,3l-6,5.3l3.7,4.7
		l6.7,1l2,4.3L105,743l6.3,8l4-2l4.6,2.5l-5.9,4.2l4.3,5.7h13l12,26.7l9-1.3l3,8.7l13.7,6l1.8-7.3l0.8-12l-1.3-13.7l-3.7-4.7l-4-13
		l3-21.7l4.7-6l4.3-1.7l2.8-2.1l1.5-3.9l-1-4l-2-4.7l2-5h2h6.3l3.8,4.1v9.8l-2.3,1.8l-0.5,3.8l9.3,6l4.8,27.8l-0.5,17l-4.1,3.8
		l-0.4,21l-0.3,14l23.3,10.8l16.8-0.8l2.3,6.5l17.8,5.3l1.8-11.5l-4-3.1l-1.8-5.8l0.5-9l0.5-18l6.8-12.5l-3.8-5.3l-2-8.3l3.6-7
		l6.7,0.3l4,3.8L268,767l4.3,5.5l5.5,8.8l3.5,19.8l1.8,16.3l-7.5,4.3l0.3,5l-3.3,12.8l4.5,0.3l9.5,7l24.8-0.5l4.3,9.8l14.8,5.3
		l3-1.5l6,2.3l1.5,3l20.3,7.5l4,23.8l-5.8,5.8l1.3,4.3l10.8,10l0.3,4.3l-7,12.3l28,7.3l13-8.3l7.5,2l-0.3,6l-4,4l32.5,9l5.5-14.3
		l6.5-8.3l-0.5-4.3l-6.8-11L436,892.8V879l-3-4.5l3.3-5.5l1.3-5.5l-2.8-5.8l-2,1.3l-3.3,8.3l-2,27.8l7.5,9.5l-7,1.5l-6.8,11.5
		l-3.8,2.3l-2.3-5.3l2-11.5l-3-23.3l-0.5-19.3l7.5-17l2-12.3l-1-4l5.5-10.3l9-5.5h7l0.8-5.3l6.5-3l12-7.8l9.8-0.3l10,16.8l-1.3,3.5
		l-0.5,6.8h9.8l3.8,1.5l6.8,11l0.5,6.3l-2.8,3.3l3,24.3l5,27.5l4.3,13.3l7.5,14.3l-2.8,14.8l-4.5-3.3l-4.8,3l-3.8-2.3l-1.3-13.8
		l-5.5-16.3l0.3,12.3l0.3,11.3l3.3,12l-1,21l4.2-2.5l7.5-1l11.8,17.3l35-27.8l40,10l3.8,9l-10.8,11l11,4l3,7.5l-14.8,13.3l17.8,12
		l4.5,18.5l-14.3,13.8l1.5,12.5l7,4l0.8,11.3h32.8l2.3-5.8l-27.5-21.3v-6.5L633,1029z M326.3,696h-67.2l-0.3,11.9l-1.8-1.8l-1.9-3.9
		l-2.8-6.8l-51.5-0.1v-58.7h126.3L326.3,696z"/>
	<polygon fill="#FF15D4" points="174.9,802.5 188.5,806.6 188.5,795.5 186.3,786.8 182.8,776.5 181.7,778.4 181,791.6 176.6,796.1 
		176.4,800.5 	"/>
	<polygon fill="#FF15D4" points="473.7,927.7 460.3,957.7 473.7,963 481,961.3 481,943.7 479.7,938 477.7,935 478.3,933 	"/>
</g>
<g id="group3">
	<polygon fill="#00FF00" points="118.1,962.3 72,1004.3 72,1013.7 91,1016.5 125.7,1032 132.2,1033.7 133.2,1035.5 139.2,1036.6 
		145.3,1035 151.3,1041.3 153.7,1044.8 164.5,1042.7 174.3,1046.7 177.3,1052.3 192,1058 205.6,1064.7 217.3,1055.7 261,1070.3 
		271.6,1064.3 277,1075 397.3,1075 535,1075 522,1058.7 503.3,1040.3 487,1014.3 350,1032.7 360,1020 331,1012.3 331,1023.2 
		225.7,1021.7 226.3,992 214.7,987.3 158,975.7 	"/>
</g>
<g id="group2_1_">
	<polygon fill="#4917E2" points="44.6,483.9 39,502.2 44,502.2 46.3,508.9 51.6,512.2 71.6,512.2 78,508.9 78.6,491.5 84,491.5 
		84,496.5 87.6,499.2 103.8,499.9 109.3,499.2 114,496.5 113.3,491.5 118.9,493.6 137,491.5 138,489.2 141.3,490.3 153,490.5 
		152,478.9 156.3,478.9 156,491.9 156.6,493.5 163.6,495.2 173.3,494.9 176.3,490.2 191.6,489.5 197.6,482.5 199.6,485.5 
		204.6,488.2 210.6,487.9 217.6,488.9 222.3,490.9 235.6,491.2 243.3,487.5 252.3,487.5 262.6,496.9 267.6,496.2 267.6,492.5 
		265.3,485.2 260,478.9 260,476.2 281.3,476.2 289.6,479.9 295.6,480.2 300,485.5 306.6,485.2 312,488.5 318,485.9 320,481.9 
		330,480.1 341.1,477.5 349,476.2 358.9,476 445.3,391.5 442.6,391.5 442.6,386.5 439.8,382.9 439.8,373.3 438.3,370.5 438.3,348.5 
		436.1,335.5 435,349.9 434.1,351.9 434,356.9 434.3,370.5 430.2,376.4 430.1,382.9 430.6,386.5 429.6,389.7 429.3,395 427.8,395.5 
		425,392.9 423.6,372.5 421.3,392.9 419,396.4 417,392.7 412.6,389.2 404.3,389.4 399.5,392.9 397,396.2 396.8,400 390.5,395.8 
		384.4,394 376.5,394 375.1,383.7 372,368.5 371.6,363 372.3,359.2 371.6,356 368,353.7 363.3,353.7 362,359.2 362.5,362.9 
		364.1,366.9 361.6,373.7 360.5,380.8 359.5,391 358.6,395 349.8,397.8 344,409.7 341.8,409.6 342.5,411.8 353.2,424.9 348.3,435.2 
		344.7,430.9 341.8,411.8 341.6,409.7 341.6,400.5 339.8,397.5 339.8,389.7 337.5,385 335.5,390 334.6,398 332.8,402.2 332.5,410.4 
		331.5,418.5 330.6,424.9 329.8,430.9 326.3,432.5 326.3,424.9 328.6,424.9 330.6,424.9 331.3,418.3 330.5,417.4 323.5,409.7 
		323.1,399.3 322,396.9 322,393.9 323.8,391.2 324,386.7 319.6,380.4 319,375 314.5,372.4 313.3,353.9 312.5,381 310.5,384.5 
		311.5,388.4 312.8,393.2 311.6,410.9 303,420.9 306.1,424.9 310.5,424.9 310.5,428.4 307.3,430.9 305,428.9 306.1,425.1 
		303.3,421.7 301.8,420.9 300.6,402 299.5,421.9 296,425.9 293.5,432.5 286.7,423.7 285.7,417.9 287.3,415.4 285.7,414.2 
		284.1,412.9 283.5,395.5 281.5,389 280.1,397.4 279.1,405.2 280.3,409.5 278,414.4 276.8,418.5 276.8,421.9 271.8,427.9 
		267.7,417.2 267.4,410.8 265.6,409 263.5,410.8 261.3,421.8 259.6,421.8 257.8,421.8 255,417.8 251.5,417.8 251,421.8 246.5,416.4 
		246.5,408.7 246.1,403.4 242.1,393.7 241,391.7 237.5,399.7 237,405.4 235.8,410.9 228.3,410.8 220.5,417.8 220.5,410.4 
		215.8,405.2 212.6,405.4 210.8,409.4 208.7,412.7 206.2,424.9 203.7,424.9 203.3,410.4 202.1,396.7 201.2,388.6 198.1,373.9 
		196.6,368.2 194.3,368.5 192,372.5 187.6,409 187.3,424.9 183.2,409.4 180.8,406 178.9,377.5 174.2,354.2 165.5,326.2 163.8,309.9 
		162.6,326.9 156.6,336.5 152,355.5 149.5,371 148.1,380.4 148.1,407.5 146.7,410.4 142.7,417.9 139.8,409.4 140.5,402.4 
		141.6,399.2 140.5,391.5 137.8,390 132.8,369 130.1,368.2 125,362.5 118.1,373 116.8,389.4 111.8,392.2 110.6,399.4 110.6,403.9 
		114,407.5 113.7,420.7 110.3,424.9 107,421.7 107,411.8 101.1,401.5 100.5,397.7 94.3,397.7 93.5,402.4 90.6,406.5 89.3,410.4 
		88.1,421.9 88,438.9 79.7,438.9 69.6,477.5 66.5,478.5 63.8,479.5 57.3,478.8 55.3,476.2 48.7,482.8 	"/>
	<polygon fill="#4917E2" points="467,307.9 464.8,326 463.6,333.9 460.8,341.4 460.7,347.3 462.3,352 461.8,355.9 458.4,362 
		457.4,367.4 456.7,372 452.8,376.1 451.5,383.9 475.8,360.6 469.4,354 469,352 469.7,336.7 467.4,333.4 	"/>
</g>
<g id="group1">
	<polygon fill="#4813EA" points="634.3,1029 614.3,1041.3 614.3,1048.3 641.7,1069 640.3,1075 705,1073 	"/>
	<path fill="#4813EA" d="M598.3,1048l14-14.7l-4-18l-18.7-11.3l14.7-14l-2.7-7.3l-10.7-4l10.7-11.3l-4-8l-26-6.7l-14-4l-35.4,27.4
		L511,959.3l-7.5,0.7l-4.5,2.7l1.3-21.3l-2.7-10l-1.3-12.7l-0.7-13.3l6,15.3l2,14l2.7,3.3l4.7-2.7l4.7,2.7l3.3-14.7l-7.3-13.3
		l-4.7-14l-2.7-17.3l-2-11.3l-2.7-22.7l2-4l-0.3-6.3L496,826l-4.3-4h-7h-4l0.3-6l1.7-4.7l-3.3-4.7l-2.7-4l-4.3-7.3h-9l-10,6.7l-8,4
		l-1.3,5.3h-6.3l-8.7,5.3l-6.3,10l1.3,4.3l-2.3,11.7l-7.7,17l0.3,19.7l3,24.7l-2,11l2.3,4.3l4-2.3l6.7-11.3l7-1l-7-9l0.3-16.7
		l0.3-10.3l3.7-8.7l2.3-3l2.3,6.3l-1,5.7l-3,4.3l1,2.7l1.3,2.7v12.7l10,22.3l7.3,12l0.3,5L447,938l-4.3,12.7l-1,2.3l-33.3-8.7
		l4.7-4.7v-6l-6.7-2l-13.3,8l-28.3-7.3l6.7-11.7v-4l-10.3-10l-2-5.3l6-4.7l-3.3-24l-19.3-7.7l-3-3l-5.3-2l-3.3,1.3l-14-5.2l-6-10.7
		l-23.3,1l-10.3-6.7h-4L276,825v-3.7l7.7-4.3l-2-15.3l-4-19.3L273,773l-5-5.7l0.3-9.7L265,753h-7.2l-2.8,6.3l1.3,8l3.7,5.7
		l-6.3,11.7l-1,28.3l1,5.8l4.2,1.8l-1.8,11.7l-9.5-2.7l-7.8-2.3l-2.3-6.7l-12.4,0.5l-4.3,0.2l-6.5-3l-16.5-7.7l-0.3-15l0.3-21.3
		l3.7-2l0.7-17l-3.7-24.7l-1.3-4.3l-8.3-5v-3.7l2.3-2V706l-4-4.3h-5.3L177,705v4l2,4.7l0.3,3.3l-3.3,4l-5,1.3l-4.3,5.7l-2,9.7
		L163,750l1.3,7.3l2.3,6.7l3,3l1.7,7.3l0.3,8l-0.7,11l-1.7,7L118,784.7l-20,6.7L59,802l-30.5,8.4L4.8,820.7V1075H277l-5.4-10.7
		l-10.6,6l-43.7-14.7l-11.8,9l-28.2-12.4l-3-5.7l-3.9-1.6l-5.9-2.4l-10.8,2.2l-8.3-9.8l-8.6,2.3l-4.5-3.6L91,1016.5l-19-2.8v-9.3
		l46.1-42.1l49.3,15.3l36.9,7.6l22.1,6.8l0.7-43.3h103.3v14h8.7l-8.7,6.7l0.7,43l29,7.7l-7,12.3l134-17.9l16.3,26l14.1,13.9l12,13.8
		l5.5,7h71.3v-11.7l-7.3-2.7L598.3,1048z M216,918.3L78.3,917l-2-75l112.7,2.3V838l6.3,6.3h22.3L216,918.3z"/>
</g>
<g id="group0_1_">
	<polyline fill="#0000FF" points="4.8,818.8 35.2,808 63.5,799.8 80.5,796.2 96.7,791.2 111.8,785.5 119.7,783.8 155.5,796.2 
		152.8,786.5 144.3,788.8 131.5,761.3 118.5,761.3 114.5,756.2 120.7,752 115.3,748.5 111.3,750.8 105.5,743.3 117.5,731.3 
		116,727.3 109.8,727.3 106.2,722.2 111,716.7 111.2,714.7 97,711.3 82.7,709.7 67.2,722.2 63.2,720 66.2,715.3 61.7,712.8 
		53.3,714.8 50.2,711.7 42.8,717 42.3,713 42.2,670.5 41.7,628.3 41.2,615.2 37.8,609.5 38.7,607.5 41.7,548.2 37.8,542.3 31.8,540 
		28.7,539 28.3,534 29.5,526.8 32.3,517.3 37.5,504.7 39.5,499.7 43,489.5 44.7,483.7 48.7,482.8 51.8,479.5 55.3,476.2 57.3,478.8 
		63.8,479.5 69.7,477.3 71.8,470.5 78,446.2 85.3,411.7 86.8,397.2 91.3,377.8 96.5,350.5 110.8,286.3 109.2,283.8 111.2,277.8 
		112.2,266 116,253 118.3,252 137.7,229 138.2,223.7 199.5,161.8 207.2,157 214.3,153.2 219,148 222.7,144.7 226.3,144.7 232,142.2 
		239.3,135.3 245.3,127.2 248.5,120.7 248.5,108.3 246.7,98.7 244,94.7 237.3,87.8 236.3,71.7 246.5,41 257.8,4.3 204.8,5 196,29 
		181.5,62.5 172.8,72.5 166.3,84 156,79.5 156.3,76 162.3,70 165.8,61.5 166.5,50.8 164.3,41.3 171,5 7.7,6 	"/>
</g>
<image display="none" width="838" height="1080" id="lines" xlink:href="18AB3D69.png" >
</image>
</svg>
