<?xml version="1.0" encoding="utf-8"?>
<!-- Generator: Adobe Illustrator 21.0.0, SVG Export Plug-In . SVG Version: 6.00 Build 0)  -->
<svg version="1.1" id="Layer_1" xmlns="http://www.w3.org/2000/svg" xmlns:xlink="http://www.w3.org/1999/xlink" x="0px" y="0px"
	 width="1024px" height="666px" viewBox="0 0 1024 666" style="enable-background:new 0 0 1024 666;" xml:space="preserve">
<style type="text/css">
	.st0{display:none;}
	.st1{fill:none;}
</style>
<g id="original_1_" class="st0">
	
		<image style="display:inline;overflow:visible;enable-background:new    ;" width="1024" height="666" id="original" xlink:href="nike.jpg" >
	</image>
</g>
<g id="group7">
	<path class="st1" d="M64.4,180.4c-0.3-0.2,5.4-3.7,7.1-4.3l9.3-3.8l15.6-7l24.3-11.7l16.1-9.6l15-8.9l24.8-15.5l18.4-11.9l12.1-8.3
		l13.4-11.3L231,79l9.3-9l8.3-5.3l11.7-8l18-9l17.3-3h21l13.6,4.7l7.4,5.3l8,8l8.7,11.3l1.7,1.7l-11,2l-4.7-8.7l-8-6.3l-4-4.7
		l-6.7-2.3L311.3,54l-9,0.7L290,56.6l-8.7,3.3l-5.4,3.4l-8.4,2.1l-7.3,4l-8.8,5.5l-7.1,6l-5.8,6.3L235,91l-8.5,8.2l-6.4,5.9
		l-6.5,5.2l-6.6,5.3l-9.5,7l-9.8,7.2l-10.7,7.8l-8.7,5.6l-10.9,6.8l-9.9,6l-10.3,5.8l-9.3,5.1l-8.6,4.7l-7.8,3.8l-6.2,3.4L98,182
		l-5.2,1.9l-10.6,4.4l-8.5,3.6l-6.2,2.3l-2.7-0.6l-1.5-4.3v-5L64.4,180.4z"/>
	<path class="st1" d="M362,105.7c3.1-0.5,6.2-1,9.3-1.4c1.2,3.9,2.5,7.9,3.7,11.8c-1.6,1-3.2,2-4.8,3L362,105.7z"/>
	<path class="st1" d="M325.8,18.1l-3.3-0.5l-4.4,0.3l-6.9,1.3l-8.6,3.1l-8.4,3.3l-7.1,3l-7.3,2.5l-4.8,2.3l-10.8,4.3l-6.5,3.7
		l-10.5,5.5l-7.5,5.8l-4.3,3.6l-4.6,5.7l-2.8,6.6l-1,6v3.7v5.1l11.9-11.9l12.3-8.3l8.8-6l8.3-4.2l9.7-4.8l11.7-3h16h10.7l10.1,3.5
		l3.5,1.2l9.2,7.1l7.6,8l9,11.2l8.3,1l4.3,3.3l3.5,2.8l3,0.9l2-0.6c0,0-0.1-7.5,0-7.9s-3.5-10.3-3.5-10.3l-2.6-5.4l-5.5-8.5
		l-6.4-7.6l-7-7.6l-7.5-6.5l-7.3-6l-9-4.9L325.8,18.1z"/>
	<path class="st1" d="M771,411.7c3,0,39.7,15,39.7,15l37,11.3l16.7,5l14,2.7l16,3.7l13.3,3.7h8l14.7,4l21.3,4l10.7,1.7l-21,9.3
		l-22.4,4.8l-22.4,2.9l-20.5,1.5l-30.6,1.1h-26H786h-29.7h-32.7l-17.9-2.3l-18.3-2.3l-7.1-1.3l-4.3-3.1l-6.6-6.5l-3.1-6.1l-1-2.4
		l-1-7.2l-0.3-2.9l1.3-9.5l4-12.8l4-13.2l15.3,7l15,5l11.3,3.7l5.7,1l8,0.7l6.7,0.7l7.4,0.3l4.9-0.3l5.7-1l6-2l4.7-3.3l2.7-2.5
		l2.7-3.9L771,411.7z"/>
</g>
<g id="group6">
	<polygon class="st1" points="405,311 425,311 440,312.3 452.8,316.8 468,325 483,336.8 502.5,352 515.3,359.3 527,363.8 
		543.5,367.8 555,369.5 566,374.8 582,384.3 592,389.8 603,395.3 598.3,407.6 593.7,420.7 583.5,435.3 570.5,448.5 558.4,460.1 
		547.7,469.9 528.8,485.5 516.1,497.6 505.7,509.8 498.2,520.3 490.3,532.7 459.6,527.7 418.9,521.5 382.9,517.9 340.7,514.3 
		303.7,513.7 295.7,513.6 300.8,488 304.3,469 312,450.7 320.7,437 366.5,454.6 413.1,470.7 432.7,475.8 464.3,476.5 491,470 
		502.5,458 512,442.5 512,421 505.5,400.5 492,375 477.5,359 462.8,348.7 447.5,338 445.5,359.5 440.5,380.5 434,392.5 424.5,399.5 
		412.5,405.5 394.3,406.8 367.4,404.6 351.4,400.5 365.7,387.3 375.7,375.3 387.7,361 394,348 400.3,333 406,318.3 	"/>
	<path class="st1" d="M82,198c-0.5,1.4-7,5.3-10.7,16.3c-3.4,10.2-4.1,21.6-4.1,21.6L86.1,284l60.9-9l128-22l89-19l21.8-5.5
		l12.5,2.2l54.4-17.5l18.2-7L455,174l-18.3-42.8l-92.4,19.3L277,165l-73,13.5l-73.8,12.8L89.5,195L82,198z"/>
	<polygon class="st1" points="87,284 89.5,298 94.5,298 96,301 167.6,335.5 199.3,349.7 254.6,371.2 289,383 321.3,392.4 
		351.4,400.5 357,395.3 368.5,383.9 387.7,361 399,336.2 406,318.3 405,311 387,313.3 376.3,313.3 365.3,309.7 356,304.3 348,293.3 
		344.3,284 344.3,266.3 346.3,251.7 347.3,244.3 348.1,237.4 318.7,243.7 283.3,251.2 254.9,256.5 216.2,263.1 177.5,269.8 147,275 
		119.8,279.1 	"/>
</g>
<g id="group5">
	<polygon class="st1" points="380.3,280 380.3,287 385.8,289 399.7,284.5 409.7,277.3 420.7,269.3 428.7,261.7 431.3,256.3 
		439.3,252.3 446.3,249.7 458.3,249.7 465,249.7 469.7,251.7 473.7,254.3 475.7,257.7 475.7,261.3 473.7,264.5 472.3,269.3 
		472.7,272 473.3,276.3 473.3,284 473.7,289 475.7,295.7 475.7,298 481.7,300.7 488,298 496,291 500.7,284 502.3,276.7 510.7,284 
		520.7,291.3 523,294 523,302.3 523,311 523,325 523,330.3 523,335 526,338 530,339.3 536.7,339.3 544.7,328 548.7,318.9 548.7,308 
		548.7,301.7 560,302.7 569.7,304 575,306.7 575,314 577.7,324.7 577.7,333 579.7,339.3 581,344.7 583,347.7 586,351 590.7,351 
		594.7,348 598.3,348 603,340.3 603,335 603,327.7 603,326 608.3,329 613.7,332.3 618.3,336.7 618.3,344 618.3,349.3 618.3,354.3 
		616.3,361.3 618.3,367.7 620.3,371.3 620.3,375.7 624.7,378.7 631,378.7 641.3,374.3 643.7,369.3 645.3,363.7 645.3,357.7 
		643.3,347.7 643,342.7 647.7,342.3 650.3,344 655.7,348.7 660.7,350.7 663,357.7 663,364.3 664.3,371.7 666.7,378.7 671.3,381.7 
		674.3,383.7 678.3,383.7 683.3,383.7 687.7,380 687.7,372.7 687.7,367 696.7,371.3 706,383.7 709.7,387.3 707.7,392.3 708.3,398.3 
		709.7,403.7 709.7,406.7 714,409.7 719.7,411.7 721.5,408.5 729.8,408 735.3,402.8 737.3,397.3 737.3,395.3 740.3,395.3 752,399.8 
		759.8,402.8 768,406.5 770.3,408 771,411.7 766.7,421.9 759.3,427.7 750.1,430.2 736.8,430.7 728.7,430 718.4,428.9 707.9,426 
		695.2,421.9 687.2,419 673.3,412.7 667,411.7 661,410.7 652.5,410.4 641.8,408.4 629,407 615.7,402.7 603,395.3 592,389.8 
		580.6,383.4 567.6,375.7 555,369.5 543.5,367.8 531.2,364.8 515.3,359.3 502.5,352 487.4,340.2 474.1,329.8 468,325 451.5,316.3 
		438.8,312.1 423.8,311 405,311 395.3,312.3 384.5,313.3 376.3,313.3 368,311 356,304.3 348.9,294.5 345,285.6 344.3,284 
		344.3,266.3 345.5,257.9 346.6,249.7 348.1,237.4 361.7,234.5 378,231.9 387.2,230.6 386.4,237.4 385.8,243.2 385.8,250.3 
		385.8,259.5 387.2,264.5 385.8,268.5 381.8,272.3 	"/>
	<polygon class="st1" points="356,137.3 362,126.3 370.2,119 362,105.7 353.8,109 344.5,108.5 333.5,101.5 329,94.8 329,88.5 
		335.3,82.5 345,78 340.3,69.3 332.3,63 327,57.9 313.1,54.6 302.3,55 290,56.7 281.3,60 277.8,63 292.1,80.8 300.3,95.9 311.4,119 
		320.4,135.7 329.1,152.1 330.3,154.5 359,148.7 354.5,142 	"/>
	<polygon class="st1" points="387.2,264.5 398.3,249.8 398.3,230.7 391,230 387.2,230.6 385.8,243.2 385.8,255 385.8,261 	"/>
	<polygon class="st1" points="60.3,195.5 98,182 119.3,171.5 105.3,183.5 90,198 80,199 72.4,222.4 67,230.5 67,237.4 74.3,255.3 
		83.1,275.2 88.1,289.9 92.2,308.6 94,317 94,326 89.5,330 88,333 83.3,337.5 78,339 73.3,339 65.3,336.3 56.3,333 51.3,331.8 
		46.8,333 40.5,339 37.5,343.5 35.3,346.8 33,351.5 31.3,353.3 29.8,351.3 29.8,347.5 33.3,341.3 34.5,333 36.3,328.5 37,323 
		37.8,317.8 39.3,310.8 41,304.5 42.5,298 41.8,288.5 41.5,278.8 43,272 44.8,268.3 46.5,266.5 46.3,262.4 46.8,253.3 47.5,244.8 
		49.3,237.4 50.3,229.5 52.3,220.8 54.3,212.5 55.8,207 55.8,204 	"/>
</g>
<g id="group4">
	<polygon class="st1" points="603,395.3 615.7,402.7 629,407 644,408.7 653.7,410.7 663,410.7 673.3,412.7 670.7,421.7 665.3,438.7 
		664,448.3 665.3,458.7 669.4,466.9 676.3,473.5 680.3,476.5 697.7,479.3 734.3,482.3 769.3,482.3 809.3,482.3 847,482.3 889,480.7 
		924.7,476 941.3,472 954,466.3 962.3,462.7 967.7,465.3 974.7,470 980,477.3 984.7,485 988.7,494.3 991.7,503.7 995.2,514.1 
		978.4,520 951.8,524.3 923,529 884.8,533.8 850.3,539 814.1,541.3 795,543.1 767.6,546 701.7,547.6 653,547.8 598.4,544.7 
		541.4,539.4 503.7,535.1 490.3,532.7 502.3,514 513.7,500 530.7,483.7 549.7,468.3 562,456.7 578.3,441 585,433.7 593,422.3 
		596.3,414.7 599.7,402.7 	"/>
	<path class="st1" d="M277.8,63c5.1,6.3,10.2,12.7,15.3,19l10,19l10,21.5l11,19.5l6.3,12.5L277,165l-54.6,11.1l-52.7,9.9l-34.2,6.2
		l-32.4,4.2l-8.8-2.6l24.9-22.3L144,158l19-11.5l14-9l16.5-12l13.5-10l15-12L235,91l11.5-12.5l9-6.5l12-6.5
		C270.9,64.7,274.3,63.8,277.8,63z"/>
</g>
<g id="group3">
	<polygon class="st1" points="21.5,499 21.5,486.5 21.5,455.5 25.5,411.5 29.8,380 33,351.5 40.5,339 49.2,332.3 65.3,336.3 
		73.3,339 83.3,337.5 89.5,333 147.9,363.8 201,389.5 244,406.7 267.5,416 305,431 320.7,437 306.9,462.8 302.9,476.5 299.6,494 
		295.7,513.6 282.5,513.6 259.5,512.5 226.9,511 203.3,510.5 167.5,509.3 127.2,507.3 113.5,505.8 94.4,506.2 72,505.3 50.5,504 
		25,503.5 	"/>
</g>
<g id="group2">
	<polygon class="st1" points="89.5,298 94,315.5 94,326 89.5,330 89.5,333 136,358 201,389.5 305,431 399,467 435.5,476.5 
		451.8,478 471,476.5 491.8,469.2 502.5,458 508.3,448.8 510.8,441.5 512.9,430.7 513,421.1 511.7,410.6 508.5,399.8 501.8,389 
		492,375 484.8,367 477.5,359 464,348.5 448.4,337 445.5,359.5 440.5,380.5 434,392.5 424.5,399.5 410,405.7 391.5,407 368,403 
		336,395 294.1,384.5 246.5,366.7 188.3,343.3 140,322.5 96,301 94.5,298 	"/>
</g>
<g id="group1">
	<path id="_x3C_Path_x3E_" class="st1" d="M21.5,501.5v6l-2.3,4.5l2.3,2.5l-1.1,4l-1.1,1.3L18,557.6l-1.5,18l-2.8,1.5v4.7l1.8,2.2
		l0.5,17.5l-1.5,1.7l0.2,2.5l1.8,3.5l0.2,5l4.8,6.5l6.2,7.5l9.3,7l2.7,1.8l13,3.3l18,2l11.8,1.5l17,0.8h17.2l31.7,1h48.3l48,0.7
		h58.5l56.7,0.8c0,0,65.8-0.3,66.3,0s47,0,47,0l83.7,0.1l102.7-1l104-3l34.2-1.7l33.3-2.8l52.7-4.2l36-5.2l37-7l19.8-4l17.2-7.7
		l10.2-8l6.7-10l2.3-8.3l0.8-28.8l-2.8-13l-3-12.5l-2.5-0.3c0,0-1.6-0.7-1.6-1s-0.1-8.3-0.1-8.3l-2-3.5l-4.9-3.8l-6,3.5l-14.4,3.9
		l-16.3,2.3l-21.8,4l-11.3,1.8l-17.5,2l-25,3.3l-16.5,2.5l-14.8,2.5l-30.8,2l-22.3,1.5l-17,2.8l-28.3,1.8l-41.3,1l-27-0.3l-34,0.3
		l-30-1.5l-39-2.5l-33.8-3.5l-36.6-3.5l-16.2-3l-19.8-3.8l-31.5-4.5l-35-5.5l-35-3l-18.8-2.5l-37-1l-44.8-0.3l-36.5-2.3l-35.5-0.8
		l-44-1.5l-25.5-1l-20.3-2.3L91.8,506l-26.3-1.3l-18.3-1.3l-9.8-0.5l-12.8,0.3L21.5,501.5z"/>
</g>
</svg>
